<svg width="20" height="21" viewBox="0 0 20 21" fill="none" xmlns="http://www.w3.org/2000/svg">
<path d="M6.23438 8.53516H2.48438V4.78516" stroke="#5F6C72" stroke-width="1.5" stroke-linecap="round" stroke-linejoin="round"/>
<path d="M14.8594 5.88599C14.2216 5.24725 13.4641 4.74052 12.6303 4.39479C11.7965 4.04905 10.9027 3.87109 10 3.87109C9.09735 3.87109 8.20355 4.04905 7.36973 4.39479C6.53591 4.74052 5.77843 5.24725 5.14063 5.88599L2.48438 8.53443" stroke="#5F6C72" stroke-width="1.5" stroke-linecap="round" stroke-linejoin="round"/>
<path d="M13.7656 12.957H17.5156V16.707" stroke="#5F6C72" stroke-width="1.5" stroke-linecap="round" stroke-linejoin="round"/>
<path d="M5.14062 15.6055C5.77843 16.2442 6.53591 16.7509 7.36973 17.0967C8.20355 17.4424 9.09734 17.6204 10 17.6204C10.9027 17.6204 11.7965 17.4424 12.6303 17.0967C13.4641 16.7509 14.2216 16.2442 14.8594 15.6055L17.5156 12.957" stroke="#5F6C72" stroke-width="1.5" stroke-linecap="round" stroke-linejoin="round"/>
</svg>
