<svg width="25" height="25" viewBox="0 0 25 25" fill="none" xmlns="http://www.w3.org/2000/svg">
<path d="M17.0188 9.84668H21.5188V5.34668" stroke="#475156" stroke-width="1.5" stroke-linecap="round" stroke-linejoin="round"/>
<path d="M6.6687 6.66885C7.43407 5.90236 8.34304 5.29429 9.34362 4.87941C10.3442 4.46453 11.4168 4.25098 12.5 4.25098C13.5831 4.25098 14.6557 4.46453 15.6563 4.87941C16.6569 5.29429 17.5658 5.90236 18.3312 6.66885L21.5187 9.84698" stroke="#475156" stroke-width="1.5" stroke-linecap="round" stroke-linejoin="round"/>
<path d="M7.9812 15.1533H3.4812V19.6533" stroke="#475156" stroke-width="1.5" stroke-linecap="round" stroke-linejoin="round"/>
<path d="M18.3312 18.3314C17.5658 19.0979 16.6569 19.706 15.6563 20.1209C14.6557 20.5358 13.5831 20.7493 12.5 20.7493C11.4168 20.7493 10.3442 20.5358 9.34362 20.1209C8.34304 19.706 7.43407 19.0979 6.6687 18.3314L3.4812 15.1533" stroke="#475156" stroke-width="1.5" stroke-linecap="round" stroke-linejoin="round"/>
</svg>
