<svg width="20" height="21" viewBox="0 0 20 21" fill="none" xmlns="http://www.w3.org/2000/svg">
<path d="M10 14.4961C12.0711 14.4961 13.75 12.8172 13.75 10.7461C13.75 8.67503 12.0711 6.99609 10 6.99609C7.92893 6.99609 6.25 8.67503 6.25 10.7461C6.25 12.8172 7.92893 14.4961 10 14.4961Z" stroke="#5F6C72" stroke-width="1.5" stroke-linecap="round" stroke-linejoin="round"/>
<path d="M14.3516 5.83203C14.5495 6.01432 14.737 6.20182 14.9141 6.39453L17.0469 6.69922C17.3944 7.30274 17.6622 7.94874 17.8438 8.62109L16.5469 10.3477C16.5469 10.3477 16.5703 10.8789 16.5469 11.1445L17.8438 12.8711C17.6631 13.5437 17.3952 14.1898 17.0469 14.793L14.9141 15.0977C14.9141 15.0977 14.5469 15.4805 14.3516 15.6602L14.0469 17.793C13.4434 18.1405 12.7974 18.4083 12.125 18.5898L10.3984 17.293C10.1333 17.3164 9.86667 17.3164 9.60156 17.293L7.875 18.5898C7.20236 18.4092 6.55625 18.1413 5.95313 17.793L5.64844 15.6602C5.45573 15.4779 5.26823 15.2904 5.08594 15.0977L2.95312 14.793C2.60561 14.1894 2.33776 13.5434 2.15625 12.8711L3.45313 11.1445C3.45313 11.1445 3.42969 10.6133 3.45313 10.3477L2.15625 8.62109C2.33692 7.94846 2.60481 7.30235 2.95312 6.69922L5.08594 6.39453C5.26823 6.20182 5.45573 6.01432 5.64844 5.83203L5.95313 3.69922C6.55665 3.3517 7.20265 3.08385 7.875 2.90234L9.60156 4.19922C9.86667 4.17578 10.1333 4.17578 10.3984 4.19922L12.125 2.90234C12.7976 3.08301 13.4437 3.35091 14.0469 3.69922L14.3516 5.83203Z" stroke="#5F6C72" stroke-width="1.5" stroke-linecap="round" stroke-linejoin="round"/>
</svg>
