<svg width="20" height="21" viewBox="0 0 20 21" fill="none" xmlns="http://www.w3.org/2000/svg">
<path d="M10 17.6211C10 17.6211 2.1875 13.2461 2.1875 7.9336C2.1875 6.99445 2.51289 6.08431 3.1083 5.35802C3.70371 4.63174 4.53236 4.13417 5.45328 3.94999C6.37419 3.76581 7.33047 3.90638 8.15943 4.34779C8.98838 4.78921 9.63879 5.50419 10 6.3711C10.3612 5.50419 11.0116 4.78921 11.8406 4.34779C12.6695 3.90638 13.6258 3.76581 14.5467 3.94999C15.4676 4.13417 16.2963 4.63174 16.8917 5.35802C17.4871 6.08431 17.8125 6.99445 17.8125 7.9336C17.8125 13.2461 10 17.6211 10 17.6211Z" stroke="#5F6C72" stroke-width="1.5" stroke-linecap="round" stroke-linejoin="round"/>
</svg>
