<svg width="20" height="21" viewBox="0 0 20 21" fill="none" xmlns="http://www.w3.org/2000/svg">
<path d="M11.875 16.9959V13.2459C11.875 13.0801 11.8092 12.9212 11.6919 12.804C11.5747 12.6867 11.4158 12.6209 11.25 12.6209H8.75C8.58424 12.6209 8.42527 12.6867 8.30806 12.804C8.19085 12.9212 8.125 13.0801 8.125 13.2459V16.9959C8.125 17.1617 8.05915 17.3206 7.94194 17.4378C7.82473 17.555 7.66576 17.6209 7.5 17.6209H3.75C3.58424 17.6209 3.42527 17.555 3.30806 17.4378C3.19085 17.3206 3.125 17.1617 3.125 16.9959V9.76933C3.1264 9.68284 3.14509 9.5975 3.17998 9.51833C3.21486 9.43917 3.26523 9.36779 3.32812 9.3084L9.57812 3.62871C9.69334 3.5233 9.84384 3.46484 10 3.46484C10.1562 3.46484 10.3067 3.5233 10.4219 3.62871L16.6719 9.3084C16.7348 9.36779 16.7851 9.43917 16.82 9.51833C16.8549 9.5975 16.8736 9.68284 16.875 9.76933V16.9959C16.875 17.1617 16.8092 17.3206 16.6919 17.4378C16.5747 17.555 16.4158 17.6209 16.25 17.6209H12.5C12.3342 17.6209 12.1753 17.555 12.0581 17.4378C11.9408 17.3206 11.875 17.1617 11.875 16.9959Z" stroke="#2DB324" stroke-width="1.5" stroke-linecap="round" stroke-linejoin="round"/>
</svg>
