<svg width="96" height="97" viewBox="0 0 96 97" fill="none" xmlns="http://www.w3.org/2000/svg">
<rect y="0.746094" width="96" height="96" rx="4" fill="#EAF7E9"/>
<path opacity="0.2" d="M32.512 57.9328C30.2787 54.1648 29.4975 49.7112 30.3151 45.408C31.1327 41.1049 33.4929 37.2482 36.9526 34.5619C40.4122 31.8756 44.7334 30.5445 49.105 30.8184C53.4765 31.0924 57.5978 32.9526 60.695 36.0498C63.7922 39.147 65.6524 43.2683 65.9264 47.6398C66.2003 52.0113 64.8692 56.3326 62.1829 59.7922C59.4966 63.2519 55.6399 65.6121 51.3368 66.4297C47.0336 67.2473 42.58 66.4661 38.812 64.2328L32.587 65.9953C32.332 66.0699 32.0616 66.0745 31.8041 66.0086C31.5467 65.9428 31.3117 65.8089 31.1238 65.621C30.9359 65.4331 30.802 65.1981 30.7362 64.9407C30.6703 64.6832 30.6749 64.4128 30.7495 64.1578L32.512 57.9328Z" fill="#2DB324"/>
<path d="M32.512 57.9328C30.2787 54.1648 29.4975 49.7112 30.3151 45.408C31.1327 41.1049 33.4929 37.2482 36.9526 34.5619C40.4122 31.8756 44.7334 30.5445 49.105 30.8184C53.4765 31.0924 57.5978 32.9526 60.695 36.0498C63.7922 39.147 65.6524 43.2683 65.9264 47.6398C66.2003 52.0113 64.8692 56.3326 62.1829 59.7922C59.4966 63.2519 55.6399 65.6121 51.3368 66.4297C47.0336 67.2473 42.58 66.4661 38.812 64.2328L32.587 65.9953C32.332 66.0699 32.0616 66.0745 31.8041 66.0086C31.5467 65.9428 31.3117 65.8089 31.1238 65.621C30.9359 65.4331 30.802 65.1981 30.7362 64.9407C30.6703 64.6832 30.6749 64.4128 30.7495 64.1578L32.512 57.9328Z" stroke="#2DB324" stroke-width="3" stroke-linecap="round" stroke-linejoin="round"/>
<path d="M48 50.9961C49.2426 50.9961 50.25 49.9887 50.25 48.7461C50.25 47.5035 49.2426 46.4961 48 46.4961C46.7574 46.4961 45.75 47.5035 45.75 48.7461C45.75 49.9887 46.7574 50.9961 48 50.9961Z" fill="#2DB324"/>
<path d="M39 50.9961C40.2426 50.9961 41.25 49.9887 41.25 48.7461C41.25 47.5035 40.2426 46.4961 39 46.4961C37.7574 46.4961 36.75 47.5035 36.75 48.7461C36.75 49.9887 37.7574 50.9961 39 50.9961Z" fill="#2DB324"/>
<path d="M57 50.9961C58.2426 50.9961 59.25 49.9887 59.25 48.7461C59.25 47.5035 58.2426 46.4961 57 46.4961C55.7574 46.4961 54.75 47.5035 54.75 48.7461C54.75 49.9887 55.7574 50.9961 57 50.9961Z" fill="#2DB324"/>
</svg>
