<svg width="96" height="97" viewBox="0 0 96 97" fill="none" xmlns="http://www.w3.org/2000/svg">
<rect y="0.746094" width="96" height="96" rx="4" fill="#EAF7E9"/>
<path opacity="0.2" d="M41.3437 48.1457C42.8873 51.3332 45.4648 53.9041 48.6562 55.4394C48.8917 55.5509 49.1521 55.5991 49.4118 55.5794C49.6715 55.5597 49.9216 55.4727 50.1375 55.3269L54.825 52.1957C55.0321 52.0552 55.2714 51.9695 55.5206 51.9465C55.7698 51.9236 56.0207 51.9641 56.25 52.0644L65.025 55.8332C65.3249 55.958 65.5755 56.1779 65.7381 56.4591C65.9007 56.7403 65.9664 57.0672 65.925 57.3894C65.6469 59.5602 64.5873 61.5552 62.9446 63.0012C61.3018 64.4473 59.1885 65.2452 57 65.2457C50.237 65.2457 43.751 62.5591 38.9688 57.7769C34.1866 52.9947 31.5 46.5087 31.5 39.7457C31.5005 37.5572 32.2984 35.4438 33.7444 33.8011C35.1904 32.1583 37.1855 31.0988 39.3562 30.8207C39.6784 30.7793 40.0053 30.845 40.2865 31.0076C40.5677 31.1702 40.7877 31.4208 40.9125 31.7207L44.6812 40.5144C44.7793 40.7401 44.8203 40.9864 44.8006 41.2316C44.781 41.4768 44.7014 41.7135 44.5687 41.9207L41.4375 46.6832C41.2981 46.8986 41.2163 47.1461 41.1999 47.4022C41.1834 47.6582 41.233 47.9142 41.3437 48.1457Z" fill="#2DB324"/>
<path d="M41.3437 48.1457C42.8873 51.3332 45.4648 53.9041 48.6562 55.4394C48.8917 55.5509 49.1521 55.5991 49.4118 55.5794C49.6715 55.5597 49.9216 55.4727 50.1375 55.3269L54.825 52.1957C55.0321 52.0552 55.2714 51.9695 55.5206 51.9465C55.7698 51.9236 56.0207 51.9641 56.25 52.0644L65.025 55.8332C65.3249 55.958 65.5755 56.1779 65.7381 56.4591C65.9007 56.7403 65.9664 57.0672 65.925 57.3894C65.6469 59.5602 64.5873 61.5552 62.9446 63.0012C61.3018 64.4473 59.1885 65.2452 57 65.2457C50.237 65.2457 43.751 62.5591 38.9688 57.7769C34.1866 52.9947 31.5 46.5087 31.5 39.7457C31.5005 37.5572 32.2984 35.4438 33.7444 33.8011C35.1904 32.1583 37.1855 31.0988 39.3562 30.8207C39.6784 30.7793 40.0053 30.845 40.2865 31.0076C40.5677 31.1702 40.7877 31.4208 40.9125 31.7207L44.6812 40.5144C44.7793 40.7401 44.8203 40.9864 44.8006 41.2316C44.781 41.4768 44.7014 41.7135 44.5687 41.9207L41.4375 46.6832C41.2981 46.8986 41.2163 47.1461 41.1999 47.4022C41.1834 47.6582 41.233 47.9142 41.3437 48.1457V48.1457Z" stroke="#2DB324" stroke-width="3" stroke-linecap="round" stroke-linejoin="round"/>
<path d="M53.8877 32.2461C56.432 32.9289 58.7519 34.2689 60.6146 36.1317C62.4773 37.9944 63.8174 40.3143 64.5002 42.8586" fill="#2DB324"/>
<path d="M53.8877 32.2461C56.432 32.9289 58.7519 34.2689 60.6146 36.1317C62.4773 37.9944 63.8174 40.3143 64.5002 42.8586" stroke="#2DB324" stroke-width="3" stroke-linecap="round" stroke-linejoin="round"/>
<path d="M52.3311 38.0391C53.8613 38.4455 55.2569 39.2492 56.3764 40.3687C57.496 41.4882 58.2997 42.8838 58.7061 44.4141" fill="#2DB324"/>
<path d="M52.3311 38.0391C53.8613 38.4455 55.2569 39.2492 56.3764 40.3687C57.496 41.4882 58.2997 42.8838 58.7061 44.4141" stroke="#2DB324" stroke-width="3" stroke-linecap="round" stroke-linejoin="round"/>
</svg>
