<svg width="32" height="33" viewBox="0 0 32 33" fill="none" xmlns="http://www.w3.org/2000/svg">
<path opacity="0.2" d="M26 11.7461H6C5.44772 11.7461 5 12.1938 5 12.7461V26.7461C5 27.2984 5.44772 27.7461 6 27.7461H26C26.5523 27.7461 27 27.2984 27 26.7461V12.7461C27 12.1938 26.5523 11.7461 26 11.7461Z" fill="#2DB324"/>
<path d="M26 11.7461H6C5.44772 11.7461 5 12.1938 5 12.7461V26.7461C5 27.2984 5.44772 27.7461 6 27.7461H26C26.5523 27.7461 27 27.2984 27 26.7461V12.7461C27 12.1938 26.5523 11.7461 26 11.7461Z" stroke="#2DB324" stroke-width="2" stroke-linecap="round" stroke-linejoin="round"/>
<path d="M11.5 11.7461V7.24609C11.5 6.05262 11.9741 4.90803 12.818 4.06411C13.6619 3.2202 14.8065 2.74609 16 2.74609C17.1935 2.74609 18.3381 3.2202 19.182 4.06411C20.0259 4.90803 20.5 6.05262 20.5 7.24609" stroke="#2DB324" stroke-width="2" stroke-linecap="round" stroke-linejoin="round"/>
<path d="M16.5 19.7461C16.5 20.0222 16.2761 20.2461 16 20.2461C15.7239 20.2461 15.5 20.0222 15.5 19.7461C15.5 19.47 15.7239 19.2461 16 19.2461C16.2761 19.2461 16.5 19.47 16.5 19.7461Z" fill="#2DB324" stroke="#2DB324" stroke-width="2"/>
</svg>
