<svg width="24" height="25" viewBox="0 0 24 25" fill="none" xmlns="http://www.w3.org/2000/svg">
<path d="M5.25 22.4961H18.75" stroke="#2DB324" stroke-width="1.5" stroke-linecap="round" stroke-linejoin="round"/>
<path d="M19.5 10.4961C19.5 17.2461 12 22.4961 12 22.4961C12 22.4961 4.5 17.2461 4.5 10.4961C4.5 8.50697 5.29018 6.59932 6.6967 5.19279C8.10322 3.78627 10.0109 2.99609 12 2.99609C13.9891 2.99609 15.8968 3.78627 17.3033 5.19279C18.7098 6.59932 19.5 8.50697 19.5 10.4961V10.4961Z" stroke="#2DB324" stroke-width="1.5" stroke-linecap="round" stroke-linejoin="round"/>
<path d="M12 13.4961C13.6569 13.4961 15 12.1529 15 10.4961C15 8.83924 13.6569 7.49609 12 7.49609C10.3431 7.49609 9 8.83924 9 10.4961C9 12.1529 10.3431 13.4961 12 13.4961Z" stroke="#2DB324" stroke-width="1.5" stroke-linecap="round" stroke-linejoin="round"/>
</svg>
