<svg width="20" height="21" viewBox="0 0 20 21" fill="none" xmlns="http://www.w3.org/2000/svg">
<path d="M4.375 18.8711H15.625" stroke="#5F6C72" stroke-width="1.5" stroke-linecap="round" stroke-linejoin="round"/>
<path d="M16.25 8.87109C16.25 14.4961 10 18.8711 10 18.8711C10 18.8711 3.75 14.4961 3.75 8.87109C3.75 7.21349 4.40848 5.62378 5.58058 4.45168C6.75269 3.27957 8.3424 2.62109 10 2.62109C11.6576 2.62109 13.2473 3.27957 14.4194 4.45168C15.5915 5.62378 16.25 7.21349 16.25 8.87109V8.87109Z" stroke="#5F6C72" stroke-width="1.5" stroke-linecap="round" stroke-linejoin="round"/>
<path d="M10 11.3711C11.3807 11.3711 12.5 10.2518 12.5 8.87109C12.5 7.49038 11.3807 6.37109 10 6.37109C8.61929 6.37109 7.5 7.49038 7.5 8.87109C7.5 10.2518 8.61929 11.3711 10 11.3711Z" stroke="#5F6C72" stroke-width="1.5" stroke-linecap="round" stroke-linejoin="round"/>
</svg>
