<svg width="20" height="20" viewBox="0 0 20 20" fill="none" xmlns="http://www.w3.org/2000/svg">
<path d="M17.5 13.8512V6.14805C17.4994 6.03678 17.4695 5.92763 17.4132 5.83162C17.357 5.73561 17.2764 5.65612 17.1797 5.60117L10.3047 1.73398C10.2121 1.6805 10.107 1.65234 10 1.65234C9.89303 1.65234 9.78795 1.6805 9.69531 1.73398L2.82031 5.60117C2.72356 5.65612 2.643 5.73561 2.58676 5.83162C2.53052 5.92763 2.5006 6.03678 2.5 6.14805V13.8512C2.5006 13.9624 2.53052 14.0716 2.58676 14.1676C2.643 14.2636 2.72356 14.3431 2.82031 14.398L9.69531 18.2652C9.78795 18.3187 9.89303 18.3469 10 18.3469C10.107 18.3469 10.2121 18.3187 10.3047 18.2652L17.1797 14.398C17.2764 14.3431 17.357 14.2636 17.4132 14.1676C17.4695 14.0716 17.4994 13.9624 17.5 13.8512V13.8512Z" stroke="#191C1F" stroke-width="1.5" stroke-linecap="round" stroke-linejoin="round"/>
<path d="M13.8281 11.9141V7.85156L6.25 3.67188" stroke="#191C1F" stroke-width="1.5" stroke-linecap="round" stroke-linejoin="round"/>
<path d="M17.4141 5.82812L10.0703 10L2.58594 5.82812" stroke="#191C1F" stroke-width="1.5" stroke-linecap="round" stroke-linejoin="round"/>
<path d="M10.0703 10L10 18.3438" stroke="#191C1F" stroke-width="1.5" stroke-linecap="round" stroke-linejoin="round"/>
</svg>
