<svg width="32" height="33" viewBox="0 0 32 33" fill="none" xmlns="http://www.w3.org/2000/svg">
<path opacity="0.2" d="M4.1375 10.0703C4.04693 10.2259 3.99946 10.4028 4 10.5828V22.9078C4.00096 23.0858 4.04884 23.2605 4.13882 23.4141C4.2288 23.5677 4.35769 23.6949 4.5125 23.7828L15.5125 29.9703C15.6608 30.055 15.8292 30.0982 16 30.0953L16.1125 16.7453L4.1375 10.0703Z" fill="#2DB324"/>
<path d="M28 22.9088V10.5838C27.999 10.4057 27.9512 10.2311 27.8612 10.0775C27.7712 9.92385 27.6423 9.79667 27.4875 9.70875L16.4875 3.52125C16.3393 3.43568 16.1711 3.39063 16 3.39062C15.8289 3.39062 15.6607 3.43568 15.5125 3.52125L4.5125 9.70875C4.35769 9.79667 4.22879 9.92385 4.13882 10.0775C4.04884 10.2311 4.00096 10.4057 4 10.5838V22.9088C4.00096 23.0868 4.04884 23.2614 4.13882 23.415C4.22879 23.5687 4.35769 23.6958 4.5125 23.7838L15.5125 29.9713C15.6607 30.0568 15.8289 30.1019 16 30.1019C16.1711 30.1019 16.3393 30.0568 16.4875 29.9713L27.4875 23.7838C27.6423 23.6958 27.7712 23.5687 27.8612 23.415C27.9512 23.2614 27.999 23.0868 28 22.9088V22.9088Z" stroke="#2DB324" stroke-width="2" stroke-linecap="round" stroke-linejoin="round"/>
<path d="M22.125 19.8086V13.3086L10 6.62109" stroke="#2DB324" stroke-width="2" stroke-linecap="round" stroke-linejoin="round"/>
<path d="M27.8627 10.0703L16.1127 16.7453L4.1377 10.0703" stroke="#2DB324" stroke-width="2" stroke-linecap="round" stroke-linejoin="round"/>
<path d="M16.1125 16.7461L16 30.0961" stroke="#2DB324" stroke-width="2" stroke-linecap="round" stroke-linejoin="round"/>
</svg>
