<svg width="21" height="21" viewBox="0 0 21 21" fill="none" xmlns="http://www.w3.org/2000/svg">
<path d="M7.75 17.6211C7.75 17.8972 7.52614 18.1211 7.25 18.1211C6.97386 18.1211 6.75 17.8972 6.75 17.6211C6.75 17.345 6.97386 17.1211 7.25 17.1211C7.52614 17.1211 7.75 17.345 7.75 17.6211Z" fill="#191C1F" stroke="#5F6C72" stroke-width="1.5"/>
<path d="M15.875 17.6211C15.875 17.8972 15.6511 18.1211 15.375 18.1211C15.0989 18.1211 14.875 17.8972 14.875 17.6211C14.875 17.345 15.0989 17.1211 15.375 17.1211C15.6511 17.1211 15.875 17.345 15.875 17.6211Z" fill="#191C1F" stroke="#5F6C72" stroke-width="1.5"/>
<path d="M4.30469 6.37109H18.3203L16.2578 13.5898C16.1842 13.8518 16.0266 14.0824 15.8093 14.2461C15.5919 14.4099 15.3268 14.4977 15.0547 14.4961H7.57031C7.29819 14.4977 7.03308 14.4099 6.81572 14.2461C6.59836 14.0824 6.44078 13.8518 6.36719 13.5898L3.53906 3.69922C3.50169 3.56856 3.42275 3.45364 3.3142 3.37187C3.20565 3.29011 3.0734 3.24595 2.9375 3.24609H1.625" stroke="#5F6C72" stroke-width="1.5" stroke-linecap="round" stroke-linejoin="round"/>
</svg>
