<svg width="14" height="14" viewBox="0 0 14 14" fill="none" xmlns="http://www.w3.org/2000/svg">
<path d="M7.24056 10.4284L9.99681 12.1784C10.3523 12.4026 10.7898 12.0691 10.6859 11.6589L9.88744 8.51984C9.86585 8.43283 9.86928 8.34149 9.89734 8.25634C9.9254 8.1712 9.97694 8.09571 10.046 8.03859L12.5179 5.97687C12.8406 5.7089 12.6765 5.16749 12.2554 5.14015L9.02884 4.93234C8.94081 4.92722 8.85617 4.89656 8.78527 4.84411C8.71437 4.79167 8.66029 4.71971 8.62963 4.63703L7.4265 1.60734C7.39465 1.51978 7.33663 1.44415 7.26032 1.39071C7.18401 1.33726 7.0931 1.30859 6.99994 1.30859C6.90677 1.30859 6.81586 1.33726 6.73955 1.39071C6.66324 1.44415 6.60522 1.51978 6.57337 1.60734L5.37025 4.63703C5.33959 4.71971 5.2855 4.79167 5.2146 4.84411C5.14371 4.89656 5.05907 4.92722 4.97103 4.93234L1.74447 5.14015C1.32337 5.16749 1.15931 5.7089 1.48197 5.97687L3.95384 8.03859C4.02293 8.09571 4.07448 8.1712 4.10254 8.25634C4.13059 8.34149 4.13403 8.43283 4.11244 8.51984L3.37416 11.4292C3.24837 11.9214 3.77337 12.3206 4.19447 12.0526L6.75931 10.4284C6.83124 10.3827 6.9147 10.3584 6.99994 10.3584C7.08517 10.3584 7.16864 10.3827 7.24056 10.4284V10.4284Z" stroke="#77878F" stroke-width="1.5" stroke-linecap="round" stroke-linejoin="round"/>
</svg>
