<svg width="32" height="33" viewBox="0 0 32 33" fill="none" xmlns="http://www.w3.org/2000/svg">
<path opacity="0.2" d="M12 12.7461V14.7461C12 15.807 11.5786 16.8244 10.8284 17.5745C10.0783 18.3247 9.06087 18.7461 8 18.7461C6.93913 18.7461 5.92172 18.3247 5.17157 17.5745C4.42143 16.8244 4 15.807 4 14.7461V12.7461" fill="#2DB324"/>
<path opacity="0.2" d="M28 12.7461V14.7461C28 15.807 27.5786 16.8244 26.8284 17.5745C26.0783 18.3247 25.0609 18.7461 24 18.7461C22.9391 18.7461 21.9217 18.3247 21.1716 17.5745C20.4214 16.8244 20 15.807 20 14.7461V12.7461" fill="#2DB324"/>
<path d="M6 18.1953V26.7453C6 27.0105 6.10536 27.2649 6.29289 27.4524C6.48043 27.64 6.73478 27.7453 7 27.7453H25C25.2652 27.7453 25.5196 27.64 25.7071 27.4524C25.8946 27.2649 26 27.0105 26 26.7453V18.1953" stroke="#2DB324" stroke-width="2" stroke-linecap="round" stroke-linejoin="round"/>
<path d="M6.75 5.74609H25.25C25.4669 5.74788 25.6776 5.8193 25.8508 5.94982C26.0241 6.08035 26.1509 6.26308 26.2125 6.47109L28 12.7461H4L5.7875 6.47109C5.84909 6.26308 5.97587 6.08035 6.14916 5.94982C6.32244 5.8193 6.53306 5.74788 6.75 5.74609V5.74609Z" stroke="#2DB324" stroke-width="2" stroke-linecap="round" stroke-linejoin="round"/>
<path d="M12 12.7461V14.7461C12 15.807 11.5786 16.8244 10.8284 17.5745C10.0783 18.3247 9.06087 18.7461 8 18.7461C6.93913 18.7461 5.92172 18.3247 5.17157 17.5745C4.42143 16.8244 4 15.807 4 14.7461V12.7461" stroke="#2DB324" stroke-width="2" stroke-linecap="round" stroke-linejoin="round"/>
<path d="M20 12.7461V14.7461C20 15.807 19.5786 16.8244 18.8284 17.5745C18.0783 18.3247 17.0609 18.7461 16 18.7461C14.9391 18.7461 13.9217 18.3247 13.1716 17.5745C12.4214 16.8244 12 15.807 12 14.7461V12.7461" stroke="#2DB324" stroke-width="2" stroke-linecap="round" stroke-linejoin="round"/>
<path d="M28 12.7461V14.7461C28 15.807 27.5786 16.8244 26.8284 17.5745C26.0783 18.3247 25.0609 18.7461 24 18.7461C22.9391 18.7461 21.9217 18.3247 21.1716 17.5745C20.4214 16.8244 20 15.807 20 14.7461V12.7461" stroke="#2DB324" stroke-width="2" stroke-linecap="round" stroke-linejoin="round"/>
</svg>
