<svg width="20" height="21" viewBox="0 0 20 21" fill="none" xmlns="http://www.w3.org/2000/svg">
<path d="M3.75 11.6523V16.9961C3.75 17.1619 3.81585 17.3208 3.93306 17.438C4.05027 17.5552 4.20924 17.6211 4.375 17.6211H15.625C15.7908 17.6211 15.9497 17.5552 16.0669 17.438C16.1842 17.3208 16.25 17.1619 16.25 16.9961V11.6523" stroke="#5F6C72" stroke-width="1.5" stroke-linecap="round" stroke-linejoin="round"/>
<path d="M4.21875 3.87109H15.7812C15.9168 3.87221 16.0485 3.91685 16.1568 3.99842C16.2651 4.08 16.3443 4.19421 16.3828 4.32422L17.5 8.24609H2.5L3.61719 4.32422C3.65568 4.19421 3.73492 4.08 3.84322 3.99842C3.95152 3.91685 4.08317 3.87221 4.21875 3.87109V3.87109Z" stroke="#5F6C72" stroke-width="1.5" stroke-linecap="round" stroke-linejoin="round"/>
<path d="M7.5 8.24609V9.49609C7.5 10.1591 7.23661 10.795 6.76777 11.2639C6.29893 11.7327 5.66304 11.9961 5 11.9961C4.33696 11.9961 3.70107 11.7327 3.23223 11.2639C2.76339 10.795 2.5 10.1591 2.5 9.49609V8.24609" stroke="#5F6C72" stroke-width="1.5" stroke-linecap="round" stroke-linejoin="round"/>
<path d="M12.5 8.24609V9.49609C12.5 10.1591 12.2366 10.795 11.7678 11.2639C11.2989 11.7327 10.663 11.9961 10 11.9961C9.33696 11.9961 8.70107 11.7327 8.23223 11.2639C7.76339 10.795 7.5 10.1591 7.5 9.49609V8.24609" stroke="#5F6C72" stroke-width="1.5" stroke-linecap="round" stroke-linejoin="round"/>
<path d="M17.5 8.24609V9.49609C17.5 10.1591 17.2366 10.795 16.7678 11.2639C16.2989 11.7327 15.663 11.9961 15 11.9961C14.337 11.9961 13.7011 11.7327 13.2322 11.2639C12.7634 10.795 12.5 10.1591 12.5 9.49609V8.24609" stroke="#5F6C72" stroke-width="1.5" stroke-linecap="round" stroke-linejoin="round"/>
</svg>
