<svg width="32" height="33" viewBox="0 0 32 33" fill="none" xmlns="http://www.w3.org/2000/svg">
<path opacity="0.2" d="M22 18.7461H2V23.7461C2 24.0113 2.10536 24.2657 2.29289 24.4532C2.48043 24.6407 2.73478 24.7461 3 24.7461H5.5C5.5 23.9504 5.81607 23.1874 6.37868 22.6248C6.94129 22.0622 7.70435 21.7461 8.5 21.7461C9.29565 21.7461 10.0587 22.0622 10.6213 22.6248C11.1839 23.1874 11.5 23.9504 11.5 24.7461H20.5C20.4997 24.2192 20.6381 23.7014 20.9014 23.245C21.1648 22.7886 21.5437 22.4096 22 22.1461V18.7461Z" fill="#2DB324"/>
<path opacity="0.2" d="M26.5 24.7461C26.5003 24.2193 26.362 23.7017 26.0988 23.2454C25.8356 22.7891 25.4569 22.4101 25.0008 22.1466C24.5447 21.883 24.0273 21.7443 23.5005 21.7442C22.9737 21.7441 22.4562 21.8827 22 22.1461V15.7461H30V23.7461C30 24.0113 29.8946 24.2657 29.7071 24.4532C29.5196 24.6407 29.2652 24.7461 29 24.7461H26.5Z" fill="#2DB324"/>
<path d="M22 10.7461H27.325C27.5242 10.7448 27.7192 10.8038 27.8843 10.9154C28.0494 11.0269 28.1769 11.1858 28.25 11.3711L30 15.7461" stroke="#2DB324" stroke-width="2" stroke-linecap="round" stroke-linejoin="round"/>
<path d="M2 18.7461H22" stroke="#2DB324" stroke-width="2" stroke-linecap="round" stroke-linejoin="round"/>
<path d="M23.5 27.7461C25.1569 27.7461 26.5 26.4029 26.5 24.7461C26.5 23.0892 25.1569 21.7461 23.5 21.7461C21.8431 21.7461 20.5 23.0892 20.5 24.7461C20.5 26.4029 21.8431 27.7461 23.5 27.7461Z" stroke="#2DB324" stroke-width="2" stroke-miterlimit="10"/>
<path d="M8.5 27.7461C10.1569 27.7461 11.5 26.4029 11.5 24.7461C11.5 23.0892 10.1569 21.7461 8.5 21.7461C6.84315 21.7461 5.5 23.0892 5.5 24.7461C5.5 26.4029 6.84315 27.7461 8.5 27.7461Z" stroke="#2DB324" stroke-width="2" stroke-miterlimit="10"/>
<path d="M20.5 24.7461H11.5" stroke="#2DB324" stroke-width="2" stroke-linecap="round" stroke-linejoin="round"/>
<path d="M5.5 24.7461H3C2.73478 24.7461 2.48043 24.6407 2.29289 24.4532C2.10536 24.2657 2 24.0113 2 23.7461V9.74609C2 9.48088 2.10536 9.22652 2.29289 9.03899C2.48043 8.85145 2.73478 8.74609 3 8.74609H22V22.1461" stroke="#2DB324" stroke-width="2" stroke-linecap="round" stroke-linejoin="round"/>
<path d="M22 15.7461H30V23.7461C30 24.0113 29.8946 24.2657 29.7071 24.4532C29.5196 24.6407 29.2652 24.7461 29 24.7461H26.5" stroke="#2DB324" stroke-width="2" stroke-linecap="round" stroke-linejoin="round"/>
</svg>
