<svg width="32" height="33" viewBox="0 0 32 33" fill="none" xmlns="http://www.w3.org/2000/svg">
<path opacity="0.2" d="M16 20.7461C20.4183 20.7461 24 17.1644 24 12.7461C24 8.32782 20.4183 4.74609 16 4.74609C11.5817 4.74609 8 8.32782 8 12.7461C8 17.1644 11.5817 20.7461 16 20.7461Z" fill="#2DB324"/>
<path d="M16 20.7461C20.4183 20.7461 24 17.1644 24 12.7461C24 8.32782 20.4183 4.74609 16 4.74609C11.5817 4.74609 8 8.32782 8 12.7461C8 17.1644 11.5817 20.7461 16 20.7461Z" stroke="#2DB324" stroke-width="2" stroke-miterlimit="10"/>
<path d="M3.875 27.7453C5.10367 25.6167 6.87104 23.8491 8.99944 22.6201C11.1278 21.3911 13.5423 20.7441 16 20.7441C18.4577 20.7441 20.8722 21.3911 23.0006 22.6201C25.129 23.8491 26.8963 25.6167 28.125 27.7453" stroke="#2DB324" stroke-width="2" stroke-linecap="round" stroke-linejoin="round"/>
</svg>
